<?xml version="1.0" encoding="utf-8"?>
<!-- Generator: Adobe Illustrator 15.1.0, SVG Export Plug-In . SVG Version: 6.00 Build 0)  -->
<!DOCTYPE svg PUBLIC "-//W3C//DTD SVG 1.1//EN" "http://www.w3.org/Graphics/SVG/1.1/DTD/svg11.dtd">
<svg version="1.1" id="Layer_1" xmlns="http://www.w3.org/2000/svg" xmlns:xlink="http://www.w3.org/1999/xlink" x="0px" y="0px"
	 width="220px" height="60px" viewBox="0 0 220 60" enable-background="new 0 0 220 60" xml:space="preserve">
<g>
	<path fill="#FFFFFF" d="M10.77,10.677c5.66-4.419,12.87-6.59,20.933-6.59c4.187,0,10.079,0.853,13.723,1.861
		c0.93,0.233,1.473,0.388,2.171,0.31c0.077,1.784,0.465,6.668,1.085,11.397c-0.388,0.543-1.551,0.621-2.093,0.155
		c-1.163-5.271-4.652-11.319-15.894-11.319c-11.862,0-21.941,7.52-21.941,23.568c0,16.281,10.312,25.274,23.026,25.274
		c10.001,0,14.421-6.513,16.203-11.086c0.543-0.387,1.706-0.232,2.016,0.311c-0.542,4.031-2.558,9.148-3.721,10.622
		c-0.93,0.154-1.86,0.465-2.713,0.775c-1.706,0.62-7.287,1.782-12.249,1.782c-6.978,0-13.646-1.395-19.305-5.194
		c-6.203-4.264-11.01-11.319-11.01-21.32C1.001,22.617,4.878,15.251,10.77,10.677z"/>
	<path fill="#FFFFFF" d="M58.375,12.771c0-4.575-0.078-5.04-2.403-6.435l-0.776-0.465c-0.387-0.232-0.387-1.318,0-1.551
		c1.939-0.62,5.583-1.783,8.373-3.256c0.311,0,0.621,0.155,0.776,0.465c-0.078,2.326-0.233,6.202-0.233,9.613v16.281
		c0,0.698,0.078,1.318,0.311,1.473c2.792-2.171,6.513-4.031,10.466-4.031c7.366,0,10.002,4.574,10.002,10.001v12.948
		c0,5.582,0.155,6.435,2.946,6.745l2.094,0.232c0.542,0.388,0.387,1.706-0.155,1.939c-2.792-0.155-5.04-0.233-7.753-0.233
		c-2.791,0-5.117,0.078-7.211,0.233c-0.542-0.233-0.698-1.551-0.154-1.939l1.551-0.232c2.868-0.465,2.945-1.163,2.945-6.745V36.727
		c0-4.962-2.403-8.296-7.365-8.296c-2.636,0-4.651,0.93-6.047,2.093c-1.395,1.164-1.628,1.551-1.628,4.264v13.025
		c0,5.582,0.155,6.356,2.947,6.745l1.628,0.232c0.542,0.311,0.387,1.706-0.155,1.939c-2.326-0.155-4.574-0.233-7.288-0.233
		c-2.79,0-5.117,0.078-7.598,0.233c-0.543-0.233-0.698-1.551-0.155-1.939l1.938-0.232c2.868-0.31,2.946-1.163,2.946-6.745V12.771z"
		/>
	<path fill="#FFFFFF" d="M109.855,40.448c1.163-0.387,1.318-1.085,1.318-2.248l0.078-3.567c0.078-2.868-0.853-6.745-5.659-6.745
		c-2.171,0-4.807,1.086-4.962,3.489c-0.078,1.24-0.155,2.17-0.775,2.636c-1.164,0.93-3.256,1.473-4.419,1.473
		c-0.698,0-1.085-0.389-1.085-1.086c0-4.031,8.761-9.536,14.421-9.536c5.582,0,8.295,3.257,8.062,9.071l-0.465,13.49
		c-0.155,3.567,0.542,6.745,3.565,6.745c0.776,0,1.474-0.232,1.939-0.465c0.387-0.232,0.776-0.543,1.008-0.543
		c0.31,0,0.542,0.465,0.542,1.008c0,0.389-2.713,3.412-6.513,3.412c-1.861,0-3.721-0.697-5.039-2.403
		c-0.311-0.465-0.775-1.085-1.24-1.085c-0.543,0-1.473,0.697-3.023,1.55c-1.708,0.931-3.413,1.938-5.583,1.938
		c-2.249,0-4.109-0.621-5.427-1.784c-1.473-1.318-2.403-3.256-2.403-5.426c0-3.024,1.473-4.807,6.434-6.591L109.855,40.448z
		 M105.048,54.094c1.552,0,3.955-1.163,4.73-1.939c0.93-0.93,0.93-2.015,1.007-3.644l0.156-4.574c0-0.853-0.311-1.008-0.775-1.008
		c-0.466,0-1.784,0.31-3.179,0.776c-4.574,1.55-6.823,2.713-6.823,5.736C100.164,50.76,101.095,54.094,105.048,54.094z"/>
	<path fill="#FFFFFF" d="M130.401,34.246c0-3.023,0-3.411-2.093-4.807l-0.698-0.465c-0.311-0.31-0.311-1.163,0.078-1.396
		c1.783-0.619,5.892-2.635,7.831-3.798c0.388,0.077,0.621,0.232,0.621,0.542v4.497c0,0.388,0.076,0.62,0.23,0.698
		c2.714-2.249,5.66-4.652,8.53-4.652c1.938,0,3.488,1.24,3.488,3.102c0,2.558-2.093,3.566-3.333,3.566
		c-0.776,0-1.163-0.232-1.706-0.542c-1.163-0.775-2.325-1.241-3.412-1.241c-1.24,0-2.171,0.699-2.792,1.552
		c-0.775,1.085-1.006,3.333-1.006,5.97v10.544c0,5.582,0.153,6.512,3.1,6.745l2.791,0.232c0.543,0.388,0.388,1.706-0.154,1.939
		c-3.644-0.155-5.894-0.233-8.605-0.233c-2.791,0-5.118,0.078-7.133,0.233c-0.543-0.233-0.698-1.551-0.155-1.939l1.473-0.232
		c2.869-0.465,2.946-1.163,2.946-6.745V34.246z"/>
	<path fill="#FFFFFF" d="M161.103,47.814c0,5.582,0.154,6.356,2.946,6.745l1.86,0.232c0.543,0.388,0.388,1.706-0.155,1.939
		c-2.559-0.155-4.807-0.233-7.52-0.233c-2.791,0-5.117,0.078-7.443,0.233c-0.543-0.233-0.698-1.551-0.155-1.939l1.784-0.232
		c2.868-0.389,2.945-1.163,2.945-6.745V12.771c0-4.575-0.077-5.04-2.403-6.435l-0.776-0.465c-0.387-0.232-0.387-1.318,0-1.551
		c1.938-0.62,5.583-1.783,8.375-3.256c0.31,0,0.618,0.155,0.773,0.465c-0.078,2.326-0.232,6.202-0.232,9.613V47.814z"/>
	<path fill="#FFFFFF" d="M175.29,34.246c0-3.023,0-3.411-2.093-4.807l-0.697-0.465c-0.311-0.31-0.311-1.163,0.077-1.396
		c1.783-0.619,6.202-2.635,7.985-3.798c0.388,0,0.697,0.155,0.775,0.465c-0.156,2.714-0.31,6.435-0.31,9.613v13.956
		c0,5.582,0.153,6.356,2.945,6.745l1.628,0.232c0.543,0.388,0.389,1.706-0.154,1.939c-2.326-0.155-4.575-0.233-7.288-0.233
		c-2.791,0-5.116,0.078-7.287,0.233c-0.543-0.233-0.698-1.551-0.155-1.939l1.628-0.232c2.867-0.389,2.945-1.163,2.945-6.745V34.246z
		 M181.726,12.15c0,2.792-1.938,4.031-4.109,4.031c-2.404,0-3.954-1.782-3.954-3.876c0-2.558,1.861-4.187,4.187-4.187
		C180.175,8.119,181.726,9.98,181.726,12.15z"/>
	<path fill="#FFFFFF" d="M197.696,36.65c-2.016,0-2.093,0.154-2.093,2.092c0,7.831,4.574,14.499,12.869,14.499
		c2.558,0,4.729-0.775,7.133-3.799c0.775-0.232,1.318,0.234,1.396,0.931c-2.56,5.271-8.14,7.21-12.172,7.21
		c-5.04,0-8.993-2.171-11.241-5.117c-2.326-3.024-3.257-6.668-3.257-10.079c0-9.536,6.28-17.522,15.583-17.522
		c6.668,0,11.01,4.574,11.01,9.227c0,1.085-0.156,1.706-0.311,2.016c-0.232,0.465-1.318,0.543-4.574,0.543H197.696z M202.503,34.324
		c5.737,0,7.443-0.31,8.063-0.776c0.231-0.155,0.464-0.465,0.464-1.472c0-2.171-1.472-4.885-5.97-4.885
		c-4.572,0-8.527,4.187-8.604,6.746c0,0.155,0,0.388,0.541,0.388H202.503z"/>
</g>
</svg>
